<?xml version="1.0" standalone="no"?>
<!DOCTYPE svg PUBLIC "-//W3C//DTD SVG 20010904//EN"
 "http://www.w3.org/TR/2001/REC-SVG-20010904/DTD/svg10.dtd">
<svg version="1.0" xmlns="http://www.w3.org/2000/svg"
 width="433.000000pt" height="577.000000pt" viewBox="0 0 433.000000 577.000000"
 preserveAspectRatio="xMidYMid meet">

<g transform="translate(0.000000,577.000000) scale(0.100000,-0.100000)"
fill="#000000" stroke="none">
<path d="M3057 4319 c-5 -19 -11 -21 -52 -17 -40 5 -45 3 -40 -10 3 -9 3 -13
-1 -9 -4 4 -14 -2 -22 -14 -10 -15 -21 -19 -38 -15 -15 4 -24 2 -24 -5 0 -8
-5 -7 -16 2 -14 12 -15 7 -9 -46 8 -62 -2 -68 -21 -12 -11 33 -34 49 -34 24 0
-17 -34 -32 -50 -22 -5 3 -10 2 -10 -3 0 -5 -13 -7 -29 -4 -27 4 -29 6 -20 35
13 47 11 57 -12 57 -16 0 -20 -5 -16 -20 4 -15 0 -20 -15 -20 -17 0 -20 5 -16
30 6 43 -9 37 -23 -9 -8 -28 -16 -38 -26 -34 -15 6 -14 21 3 81 4 14 2 22 -6
22 -7 0 -10 -7 -6 -15 3 -9 -1 -18 -9 -21 -10 -4 -15 -22 -16 -53 -1 -25 -3
-38 -6 -29 -4 14 -8 16 -24 8 -10 -6 -19 -17 -19 -25 0 -8 -11 -27 -25 -42
-23 -25 -25 -26 -24 -8 3 43 -1 75 -11 75 -5 0 -10 -10 -10 -22 0 -15 -12 -31
-35 -46 -22 -14 -35 -30 -36 -45 0 -12 -3 -16 -6 -9 -4 10 -8 10 -21 0 -13
-11 -14 -11 -7 2 4 8 22 32 38 53 43 56 24 58 -27 2 -41 -44 -45 -46 -48 -24
-2 16 -11 25 -25 27 -17 3 -23 -3 -28 -29 -6 -27 -9 -30 -17 -15 -5 9 -8 26
-6 38 2 12 -3 23 -11 26 -13 4 -12 -18 5 -93 l4 -20 -10 20 c-5 11 -14 39 -20
63 -11 41 -23 52 -35 32 -3 -6 -18 -7 -31 -4 l-26 7 7 -55 c5 -37 3 -58 -4
-62 -7 -5 -11 9 -12 41 0 36 -3 43 -9 28 -6 -14 -9 -15 -10 -5 -1 10 -4 9 -10
-5 -5 -11 -7 -36 -5 -55 2 -19 2 -27 -1 -17 -4 14 -9 15 -19 7 -8 -6 -11 -18
-8 -26 3 -8 0 -14 -6 -14 -7 0 -11 20 -10 53 0 28 3 46 6 39 7 -18 23 -4 23
21 0 18 -2 19 -11 7 -8 -11 -9 -5 -5 25 5 30 4 36 -4 23 -6 -9 -17 -15 -25
-12 -18 7 -19 -9 -4 -37 8 -15 7 -35 -2 -72 -11 -46 -13 -49 -25 -32 -18 24
-18 35 0 35 8 0 16 13 18 29 2 17 2 30 -1 29 -25 -2 -33 4 -28 22 3 11 2 18
-3 15 -4 -3 -11 11 -14 30 -4 19 -12 37 -18 41 -8 5 -9 2 -5 -10 14 -35 38
-138 34 -143 -3 -2 -14 28 -26 66 -24 80 -47 96 -38 29 4 -35 3 -39 -6 -20 -5
12 -17 22 -26 22 -9 0 -22 9 -29 20 -7 11 -18 20 -25 20 -12 0 -58 -79 -84
-145 -10 -25 -11 -12 -6 75 6 105 6 105 -14 87 -24 -21 -83 -130 -83 -155 -1
-13 -4 -11 -15 8 -13 24 -14 24 -21 -30 -5 -30 -7 -60 -6 -66 1 -5 -21 -18
-48 -28 -54 -20 -100 -71 -100 -112 0 -12 -7 -27 -15 -34 -11 -9 -15 -35 -17
-89 -1 -42 -3 -59 -5 -38 -5 47 -30 50 -36 5 -4 -32 -4 -32 -5 5 -1 26 -6 37
-14 34 -9 -3 -12 -28 -11 -88 2 -80 1 -83 -15 -62 -15 20 -60 43 -82 43 -9 0
19 -87 63 -195 13 -33 27 -69 31 -80 6 -16 9 -17 16 -5 7 11 10 3 10 -27 0
-23 9 -62 19 -85 11 -24 24 -54 30 -68 9 -19 10 1 6 91 -6 130 -7 129 62 129
l36 0 -7 -107 c-3 -60 -13 -146 -20 -193 -12 -74 -12 -90 1 -125 24 -68 33
-98 28 -103 -2 -2 -7 9 -11 24 -9 37 -44 84 -61 84 -9 0 -11 -5 -7 -12 5 -7 7
-26 6 -43 -2 -23 0 -26 8 -15 8 12 10 11 10 -7 0 -12 4 -24 9 -27 4 -3 11 -25
15 -48 4 -24 10 -54 13 -66 5 -20 2 -23 -18 -20 -20 3 -32 26 -87 163 -35 88
-115 285 -178 438 -63 153 -114 289 -114 301 0 13 -8 34 -19 47 -27 36 -59
113 -66 164 -8 52 -20 58 -29 15 -3 -20 2 -50 14 -83 29 -76 24 -81 -10 -12
-16 33 -30 71 -31 85 0 14 -4 34 -9 45 -7 16 -9 12 -9 -18 -1 -22 5 -53 13
-70 71 -158 69 -185 -3 -44 -16 30 -38 32 -55 5 -8 -14 -4 -30 22 -78 18 -33
30 -60 25 -60 -5 0 -23 27 -42 61 -50 91 -48 64 3 -42 57 -119 95 -218 190
-502 l77 -227 4 -313 c2 -173 -1 -340 -6 -376 -8 -53 -7 -75 10 -135 15 -54
22 -128 31 -311 13 -310 28 -703 35 -979 7 -246 14 -295 58 -379 68 -130 210
-194 441 -199 86 -2 109 0 116 12 8 12 13 13 30 2 12 -7 20 -8 20 -2 0 5 8 10
18 10 10 0 23 5 29 11 6 6 27 11 47 12 22 1 36 6 36 14 0 7 15 17 33 22 29 8
29 9 7 11 -17 1 -6 7 35 20 56 18 104 39 115 50 3 3 19 12 35 22 30 16 71 66
101 123 l16 30 -38 -36 c-49 -46 -121 -94 -154 -103 -14 -4 -34 -11 -45 -16
-43 -17 -104 -30 -119 -24 -10 4 20 19 81 39 94 33 232 114 241 143 2 8 -23
-5 -55 -27 -33 -23 -78 -48 -99 -56 -21 -9 -48 -20 -59 -24 -45 -19 -154 -41
-222 -44 -86 -4 -116 7 -44 17 27 4 52 10 55 14 8 13 -13 38 -21 27 -5 -5 -17
-12 -28 -13 -16 -3 -18 -1 -8 9 15 15 17 30 4 26 -5 -1 -9 1 -10 6 -3 20 0 28
8 22 12 -7 33 29 24 39 -3 3 -1 6 5 6 6 0 13 -10 15 -22 l4 -23 2 23 c1 19 5
22 21 17 16 -5 20 -2 20 14 0 12 -7 21 -15 21 -8 0 -15 1 -16 3 -16 79 -8 132
21 140 22 6 23 1 24 -93 1 -39 5 -55 15 -55 10 0 13 23 15 99 1 75 4 100 15
104 10 3 11 0 5 -9 -6 -11 -5 -12 8 -2 8 7 18 10 21 6 4 -3 7 -1 7 5 0 7 -5
12 -11 12 -8 0 -10 12 -6 33 3 19 2 40 -3 47 -5 8 -8 -1 -8 -24 0 -36 -7 -54
-17 -45 -2 3 0 43 5 90 14 133 16 262 4 266 -6 2 -8 -10 -6 -32 2 -19 0 -35
-4 -35 -5 0 -8 -20 -6 -45 2 -25 1 -53 -3 -63 -4 -9 -8 -43 -10 -74 -1 -46 -7
-62 -25 -78 -19 -16 -21 -22 -10 -35 10 -12 10 -15 0 -15 -7 0 -10 -7 -5 -17
4 -11 3 -14 -3 -8 -18 19 -22 72 -7 91 23 31 19 51 -6 28 -20 -18 -20 -18 -13
11 4 17 11 31 16 33 4 2 6 16 3 30 -3 15 -2 21 1 15 9 -19 37 -16 30 2 -3 9 1
18 9 21 9 4 13 15 11 27 -3 12 -5 28 -5 36 -1 11 -5 10 -16 -5 -14 -18 -14
-17 -15 16 0 26 -3 31 -10 20 -8 -13 -10 -13 -10 2 0 9 7 21 16 26 9 5 18 21
19 36 3 26 -7 31 -56 27 -11 -1 -18 9 -23 30 -9 44 -7 57 4 39 7 -11 10 -7 10
19 0 19 3 31 8 27 4 -4 7 -26 7 -49 0 -25 5 -42 14 -45 10 -3 12 2 7 22 -7 29
8 66 27 66 14 0 47 -54 47 -78 0 -10 9 -23 20 -30 23 -14 25 -8 35 98 3 36 14
108 24 160 10 52 16 100 14 107 -10 25 -23 13 -23 -20 0 -18 -17 -64 -39 -106
l-39 -74 -4 39 c-4 30 2 54 28 104 27 56 44 104 49 145 1 6 5 18 9 28 10 20 1
47 -14 47 -7 0 -9 -8 -5 -19 4 -14 0 -21 -15 -26 -11 -3 -20 -13 -20 -21 0 -8
-7 -28 -15 -44 -16 -31 -45 -41 -45 -15 0 8 -4 15 -8 15 -5 0 -14 12 -21 26
-6 14 -17 24 -24 21 -15 -5 -18 -46 -5 -70 5 -10 6 -26 2 -35 -4 -9 -6 -25 -5
-36 2 -12 -2 -16 -9 -11 -6 4 -10 16 -7 26 3 10 0 21 -7 24 -8 3 -8 7 2 11 6
3 9 11 5 17 -5 7 -8 67 -8 134 0 76 -4 123 -10 122 -5 0 -9 -11 -8 -25 1 -15
-3 -24 -13 -24 -8 0 -14 6 -13 13 3 26 -1 38 -12 31 -6 -3 -8 -15 -6 -26 5
-16 3 -17 -9 -7 -11 9 -11 15 -3 25 6 7 8 18 4 24 -10 17 32 52 67 56 16 2 34
7 40 11 18 11 68 11 68 1 0 -7 4 -7 13 -1 6 5 32 10 56 11 24 0 51 8 60 17 10
8 27 15 39 15 11 0 23 4 27 9 3 5 19 12 35 16 17 4 30 10 30 14 0 6 38 21 96
36 12 3 24 50 24 92 0 24 -1 23 -47 -15 -27 -22 -62 -47 -79 -55 -45 -23 -214
-55 -319 -61 l-90 -5 80 13 80 14 -95 -5 c-52 -3 -92 -2 -88 1 3 4 27 8 53 8
26 0 72 8 103 18 32 10 73 21 92 25 51 11 178 54 214 73 37 20 106 81 106 94
0 5 -17 -4 -37 -21 -115 -91 -254 -123 -535 -125 -138 -1 -201 3 -209 11 -9 9
0 13 37 18 27 3 67 10 88 16 28 8 41 8 46 -1 5 -8 11 -8 21 2 8 8 33 23 55 33
31 13 44 26 50 49 12 42 6 108 -9 103 -7 -2 -11 -16 -10 -31 1 -17 -3 -26 -13
-26 -9 0 -14 7 -12 18 2 11 -4 17 -17 18 -11 1 -25 2 -31 3 -8 1 -10 23 -8 67
4 61 3 65 -12 53 -14 -12 -16 -11 -12 6 2 11 10 19 16 17 7 -1 12 11 12 32 0
18 3 49 6 67 10 50 -9 26 -22 -29 l-12 -47 -1 57 c-1 42 3 59 14 66 10 5 13
15 9 26 -5 14 -9 15 -15 4 -7 -10 -9 -8 -9 7 -1 17 -3 16 -11 -5 -6 -14 -8
-53 -4 -92 4 -44 3 -68 -4 -68 -6 0 -8 -6 -5 -14 3 -8 1 -23 -4 -33 -9 -15
-11 -12 -17 19 -4 20 -4 45 -1 55 3 10 6 51 7 91 1 54 5 72 15 72 8 0 14 7 14
15 0 8 5 15 10 15 6 0 10 -6 10 -12 0 -9 4 -8 10 2 9 13 12 13 21 -2 13 -23
25 -23 31 0 4 15 -2 18 -39 20 -90 4 -79 19 18 27 111 8 218 23 233 33 7 4 9
21 5 42 -5 29 -7 30 -8 9 -1 -31 -11 -36 -82 -45 l-51 -7 6 64 c6 75 15 205
21 339 3 52 10 107 16 123 9 21 8 31 -1 42 -11 13 -10 14 3 10 8 -4 18 -2 22
4 3 6 11 11 17 11 6 0 5 -7 -3 -17 -12 -15 -12 -16 4 -10 10 4 27 7 38 7 26 0
24 18 -3 23 -20 4 -19 4 4 6 26 1 28 -2 24 -31 -3 -29 -6 -33 -30 -30 -15 2
-34 -2 -42 -8 -19 -16 -19 -51 0 -44 8 3 16 -2 19 -13 4 -14 5 -14 6 5 1 27
41 32 42 5 0 -16 2 -15 10 2 7 16 8 13 4 -11 -4 -20 -1 -35 8 -43 9 -6 18 -41
22 -79 4 -37 11 -74 16 -83 4 -9 13 -60 18 -115 8 -82 8 -103 -4 -121 -14 -20
-13 -22 8 -18 63 13 77 25 79 74 l1 46 7 -45 c4 -25 8 -39 8 -32 1 6 7 12 13
12 7 0 18 8 26 18 8 9 11 11 7 3 -5 -10 -1 -12 17 -6 18 5 20 4 9 -4 -19 -13
-6 -26 17 -16 10 5 22 7 26 6 5 -1 7 6 5 16 -2 10 -12 17 -21 17 -14 -2 -15 1
-6 12 9 11 9 18 1 26 -9 9 -12 8 -12 -4 0 -9 -5 -20 -12 -24 -8 -5 -9 0 -6 14
8 28 -6 37 -25 17 -21 -21 -25 -19 -19 11 3 17 9 23 19 19 11 -4 13 -1 9 11
-7 18 20 121 35 129 5 4 6 17 3 29 -3 14 0 29 8 37 8 8 20 23 27 34 12 19 12
19 6 -2 -4 -16 3 -30 30 -56 l36 -35 0 -123 c1 -68 -3 -169 -8 -224 -5 -59 -5
-208 0 -365 5 -146 7 -442 4 -658 -4 -315 -2 -407 9 -460 10 -48 12 -80 5
-112 -5 -25 -13 -78 -17 -118 l-7 -73 44 -41 c61 -59 164 -103 284 -123 116
-19 257 -18 215 2 -15 7 -19 12 -10 13 8 1 2 6 -14 10 -17 6 -36 5 -47 0 -10
-6 -30 -10 -44 -10 -20 0 -26 4 -23 17 3 13 14 18 43 19 22 0 47 4 55 8 8 3
66 15 129 25 131 22 158 37 74 40 -63 2 -76 7 -47 16 10 4 27 11 36 16 25 13
28 11 21 -8 -4 -11 9 -4 35 17 23 18 42 37 42 42 0 5 5 6 10 3 6 -3 10 -1 10
4 0 6 6 11 13 11 6 0 26 13 44 28 18 15 44 35 58 45 28 20 33 37 10 37 -8 0
-15 5 -15 10 0 14 -21 12 -55 -6 -16 -9 -56 -17 -88 -19 -32 -2 -64 -8 -71
-14 -7 -6 -16 -8 -19 -4 -13 12 -7 21 21 26 22 4 27 12 29 36 1 17 -2 33 -7
36 -15 9 -12 49 5 81 16 32 20 91 6 112 -11 18 58 137 72 123 5 -5 19 -37 32
-72 27 -76 50 -84 77 -29 30 60 21 95 -46 185 -6 8 -2 19 12 33 21 21 26 38
23 72 -1 8 9 20 21 25 29 13 54 63 39 78 -15 15 -79 -16 -148 -75 l-58 -49 -6
28 c-3 16 -14 41 -24 56 -13 21 -15 31 -6 40 8 8 14 8 23 -1 19 -19 28 -14 28
18 0 21 -9 39 -31 58 -37 33 -36 18 -25 364 9 289 6 318 -32 303 -10 -3 -12 0
-8 10 4 13 -18 35 -34 32 -8 -1 -90 53 -90 59 0 19 38 31 129 43 58 7 119 19
135 27 30 13 29 14 -32 9 -53 -4 -63 -2 -58 10 3 8 1 15 -4 15 -6 0 -10 -5
-10 -11 0 -8 -4 -8 -14 0 -11 9 -11 17 -3 36 8 15 16 20 22 15 8 -7 11 12 10
62 -1 57 -5 73 -18 77 -11 4 -13 11 -8 20 5 8 14 10 21 6 7 -4 16 -2 21 6 5 9
25 14 53 13 25 0 43 2 41 6 -3 4 19 16 48 27 47 19 53 19 58 4 4 -9 3 -20 -2
-26 -15 -15 -10 -37 13 -56 20 -18 21 -20 3 -39 -15 -17 -16 -20 -3 -20 24 0
42 28 43 68 0 21 4 43 9 50 4 7 5 25 2 39 -4 14 -2 31 5 39 17 20 3 17 -44
-10 -23 -14 -78 -35 -122 -48 -70 -20 -100 -23 -235 -22 -85 1 -186 7 -225 14
-38 7 -90 14 -115 17 -69 6 -94 13 -84 23 5 5 40 6 82 2 70 -8 100 0 45 11
-105 21 -193 52 -193 68 0 5 14 6 31 2 30 -6 73 10 94 33 6 7 39 14 75 18 40
3 57 2 45 -3 -13 -6 10 -7 60 -5 44 2 141 6 215 8 100 4 160 11 230 29 132 35
144 41 169 82 26 44 26 48 4 37 -37 -19 -119 -33 -222 -38 -168 -9 -234 -11
-268 -6 -60 8 -23 20 84 27 60 4 152 16 206 26 54 10 101 19 103 19 2 0 9 11
14 25 5 14 16 25 24 25 22 0 27 28 9 50 -21 24 -28 20 -53 -37 -28 -63 -36
-47 -15 30 12 46 14 70 7 83 -12 24 3 142 22 163 7 9 17 26 20 39 9 27 28 30
24 2 -6 -40 16 -23 33 25 21 60 23 86 7 84 -42 -5 -55 31 -18 51 27 15 25 52
-5 88 -22 27 -24 34 -18 101 3 39 10 74 14 77 14 8 11 24 -3 22 -9 -2 -12 9
-11 32 1 29 -3 37 -24 47 -27 13 -43 9 -43 -10 0 -7 -11 -25 -24 -42 l-24 -29
2 62 1 62 -32 0 c-17 0 -34 -6 -37 -12 -2 -7 -4 -2 -3 12 2 25 1 25 -62 21
-90 -5 -111 -31 -86 -104 15 -44 19 -161 5 -152 -4 3 -15 36 -25 73 -17 73
-17 141 1 157 15 13 24 54 14 60 -4 3 -10 -5 -13 -16z m88 -39 c-3 -5 -11 -10
-16 -10 -6 0 -7 5 -4 10 3 6 11 10 16 10 6 0 7 -4 4 -10z m-188 -42 c-3 -8 -6
-5 -6 6 -1 11 2 17 5 13 3 -3 4 -12 1 -19z m-290 -50 c-2 -7 -19 -60 -36 -117
-18 -57 -34 -101 -36 -99 -3 2 0 32 6 67 5 34 8 68 7 74 -4 17 39 87 53 87 6
0 9 -6 6 -12z m-156 -99 c-17 -35 -30 -61 -31 -57 0 6 9 30 45 123 4 11 9 15
11 9 3 -6 -9 -39 -25 -75z m739 71 c0 -5 -4 -10 -10 -10 -5 0 -10 5 -10 10 0
6 5 10 10 10 6 0 10 -4 10 -10z m-818 -22 c-7 -7 -12 -8 -12 -2 0 14 12 26 19
19 2 -3 -1 -11 -7 -17z m552 -58 l6 -35 -15 30 c-8 17 -14 41 -14 55 0 23 1
23 8 5 5 -11 11 -36 15 -55z m-424 50 c0 -5 -2 -10 -4 -10 -3 0 -8 5 -11 10
-3 6 -1 10 4 10 6 0 11 -4 11 -10z m-632 -165 l-1 -50 -7 45 c-4 25 -10 61
-14 80 l-6 35 14 -30 c9 -16 15 -52 14 -80z m382 45 c0 -20 -2 -22 -10 -10 -5
8 -10 26 -10 40 0 20 2 22 10 10 5 -8 10 -26 10 -40z m-280 -71 c0 -6 -4 -7
-10 -4 -5 3 -10 11 -10 16 0 6 5 7 10 4 6 -3 10 -11 10 -16z m1059 -40 c-14
-8 -29 -3 -29 11 0 4 9 6 21 3 15 -4 17 -8 8 -14z m-562 -11 c-3 -8 -6 -5 -6
6 -1 11 2 17 5 13 3 -3 4 -12 1 -19z m-497 0 c0 -9 3 -8 9 1 8 12 11 9 16 -12
4 -15 11 -24 16 -21 5 3 9 -17 9 -44 0 -38 -5 -55 -25 -76 -25 -27 -33 -42
-16 -32 5 3 9 -6 9 -21 0 -15 5 -29 11 -31 6 -2 11 -13 11 -25 0 -16 -3 -18
-9 -8 -12 19 -17 4 -19 -62 -2 -40 1 -56 8 -52 8 5 10 -14 8 -59 -3 -58 -6
-66 -27 -76 -22 -10 -23 -9 -11 4 14 17 8 19 -28 9 -17 -4 -20 -8 -11 -14 17
-10 9 -18 -22 -21 -26 -3 -27 1 -11 64 7 26 6 38 -2 41 -8 3 -7 12 2 32 8 17
12 57 11 94 -6 155 0 214 27 269 24 49 44 67 44 40z m492 -65 c-11 -28 -11
-28 -9 9 0 23 5 34 10 29 6 -6 5 -21 -1 -38z m-842 -7 c0 -12 -5 -7 -19 24
-11 24 -11 24 3 6 9 -11 16 -24 16 -30z m1330 14 c0 -5 -2 -10 -4 -10 -3 0 -8
5 -11 10 -3 6 -1 10 4 10 6 0 11 -4 11 -10z m-725 -31 c11 -17 -1 -21 -15 -4
-8 9 -8 15 -2 15 6 0 14 -5 17 -11z m206 -36 c-12 -20 -14 -14 -5 12 4 9 9 14
11 11 3 -2 0 -13 -6 -23z m-414 -70 c-3 -10 -5 -4 -5 12 0 17 2 24 5 18 2 -7
2 -21 0 -30z m-1045 -43 c5 0 8 -4 8 -10 0 -20 -20 -9 -35 20 -20 39 -19 52 3
18 9 -16 20 -28 24 -28z m315 -87 c-2 -16 -4 -5 -4 22 0 28 2 40 4 28 2 -13 2
-35 0 -50z m1079 -19 c-4 -14 -9 -24 -12 -21 -3 2 -2 17 2 31 3 15 9 25 11 22
3 -3 2 -17 -1 -32z m-1446 -2 c7 2 15 -3 17 -9 3 -7 0 -13 -6 -13 -6 0 -11 -7
-11 -16 0 -23 -17 -8 -29 27 -9 26 -9 29 3 20 8 -7 19 -10 26 -9z m327 -4 c-3
-8 -6 -5 -6 6 -1 11 2 17 5 13 3 -3 4 -12 1 -19z m1213 -28 c0 -15 -6 -30 -14
-33 -19 -8 -26 1 -26 33 0 32 7 41 26 33 8 -3 14 -18 14 -33z m-1203 -67 c-3
-10 -5 -4 -5 12 0 17 2 24 5 18 2 -7 2 -21 0 -30z m1080 15 c-3 -8 -6 -5 -6 6
-1 11 2 17 5 13 3 -3 4 -12 1 -19z m-20 -70 c-3 -8 -6 -5 -6 6 -1 11 2 17 5
13 3 -3 4 -12 1 -19z m-870 -55 c-3 -10 -5 -2 -5 17 0 19 2 27 5 18 2 -10 2
-26 0 -35z m861 -12 c-5 -14 -11 -35 -13 -46 -2 -11 -10 -38 -19 -60 -12 -33
-15 -35 -15 -15 -1 39 10 70 22 63 7 -4 8 0 4 11 -10 25 12 104 23 86 5 -7 4
-25 -2 -39z m712 39 c0 -5 -4 -10 -10 -10 -5 0 -10 5 -10 10 0 6 5 10 10 10 6
0 10 -4 10 -10z m7 -46 c-9 -9 -28 6 -21 18 4 6 10 6 17 -1 6 -6 8 -13 4 -17z
m-1597 -183 c-6 -64 -14 -118 -17 -121 -3 -3 -3 22 0 55 4 33 10 96 14 140 4
44 9 72 11 61 2 -10 -1 -71 -8 -135z m717 -168 c-2 -16 -4 -5 -4 22 0 28 2 40
4 28 2 -13 2 -35 0 -50z m1193 43 c0 -15 -18 -31 -26 -23 -7 7 7 37 17 37 5 0
9 -6 9 -14z m-1686 -156 c5 -81 5 -82 -4 -20 -5 36 -11 78 -15 95 -3 18 -2 26
4 20 5 -6 12 -48 15 -95z m1196 54 c0 -14 5 -34 10 -45 6 -10 7 -19 2 -19 -13
0 -32 46 -32 76 0 14 4 22 10 19 6 -3 10 -17 10 -31z m-703 -6 c-3 -8 -6 -5
-6 6 -1 11 2 17 5 13 3 -3 4 -12 1 -19z m911 -35 c2 -46 -6 -75 -19 -68 -10 7
-12 88 -2 98 14 14 20 6 21 -30z m-1281 -35 c-3 -8 -6 -5 -6 6 -1 11 2 17 5
13 3 -3 4 -12 1 -19z m1191 -48 c7 -12 17 -18 22 -15 11 6 37 -41 28 -50 -8
-8 -38 6 -38 17 0 6 -11 19 -25 30 -14 11 -25 24 -25 29 0 17 25 9 38 -11z
m-1337 -181 c-8 -38 -9 -40 -10 -12 -1 17 2 39 5 48 11 29 14 10 5 -36z m0
-126 c-2 -68 -11 -67 -11 2 0 32 3 55 7 52 3 -4 5 -28 4 -54z m66 -140 c-3
-10 -5 -4 -5 12 0 17 2 24 5 18 2 -7 2 -21 0 -30z m-417 -203 c0 -5 -2 -10 -4
-10 -3 0 -8 5 -11 10 -3 6 -1 10 4 10 6 0 11 -4 11 -10z m253 -97 c-7 -2 -19
-2 -25 0 -7 3 -2 5 12 5 14 0 19 -2 13 -5z m181 -167 c-6 -16 -24 -23 -24 -8
0 10 22 33 27 28 2 -2 1 -11 -3 -20z m-67 -93 c-2 -16 -4 -3 -4 27 0 30 2 43
4 28 2 -16 2 -40 0 -55z m73 -23 c0 -5 -2 -10 -4 -10 -3 0 -8 5 -11 10 -3 6
-1 10 4 10 6 0 11 -4 11 -10z m-70 -31 c0 -11 -4 -18 -10 -14 -5 3 -7 12 -3
20 7 21 13 19 13 -6z m137 -16 c-3 -10 -5 -4 -5 12 0 17 2 24 5 18 2 -7 2 -21
0 -30z m1373 -113 c0 -5 -4 -10 -10 -10 -5 0 -10 5 -10 10 0 6 5 10 10 10 6 0
10 -4 10 -10z m-1188 -252 c-9 -54 -19 -98 -22 -98 -3 0 -16 21 -27 48 -12 26
-30 59 -40 74 -16 26 -16 29 -1 44 15 16 17 14 28 -25 6 -22 15 -41 19 -41 5
0 18 23 30 51 13 28 24 49 25 47 2 -1 -4 -47 -12 -100z m-145 10 c-3 -7 -5 -2
-5 12 0 14 2 19 5 13 2 -7 2 -19 0 -25z m682 -442 c7 -9 8 -17 2 -20 -14 -9
-41 4 -41 20 0 18 24 18 39 0z m-902 -276 c0 -16 -4 -27 -9 -24 -4 3 -8 16 -8
30 0 13 4 24 8 24 5 0 9 -13 9 -30z m26 -148 c-10 -10 -20 -14 -22 -9 -2 5 3
13 10 18 24 15 30 10 12 -9z m112 -2 c-3 -5 -10 -10 -16 -10 -5 0 -9 5 -9 10
0 6 7 10 16 10 8 0 12 -4 9 -10z m-35 -16 c0 -2 -7 -4 -15 -4 -8 0 -15 4 -15
10 0 5 7 7 15 4 8 -4 15 -8 15 -10z m-120 2 c0 -3 -4 -8 -10 -11 -5 -3 -10 -1
-10 4 0 6 5 11 10 11 6 0 10 -2 10 -4z m314 -86 c-10 -10 -213 -27 -203 -16 3
3 39 10 80 15 107 12 135 13 123 1z"/>
<path d="M2460 4201 c0 -17 5 -31 10 -31 6 0 10 11 10 24 0 14 -4 28 -10 31
-6 4 -10 -7 -10 -24z"/>
<path d="M1330 4075 c0 -5 5 -17 10 -25 5 -8 10 -10 10 -5 0 6 -5 17 -10 25
-5 8 -10 11 -10 5z"/>
<path d="M856 3966 c-6 -37 -4 -52 7 -63 12 -13 14 -8 10 39 -6 76 -9 79 -17
24z"/>
<path d="M1120 3856 c0 -20 11 -46 19 -46 4 0 6 14 3 30 -4 30 -22 43 -22 16z"/>
<path d="M1290 3844 c0 -21 5 -31 15 -31 18 0 18 5 0 37 l-14 25 -1 -31z"/>
<path d="M810 3807 c0 -20 5 -39 11 -42 7 -5 8 5 3 32 -9 51 -14 54 -14 10z"/>
<path d="M3436 3618 c-5 -21 -5 -46 0 -55 6 -15 8 -13 12 10 2 15 2 39 0 55
-4 25 -5 24 -12 -10z"/>
<path d="M1989 3173 c-25 -6 -32 -43 -8 -43 10 0 19 -4 19 -10 0 -5 -9 -10
-19 -10 -14 0 -19 -6 -18 -20 1 -11 8 -20 16 -20 11 0 11 -3 -2 -18 -24 -26
-21 -34 9 -30 22 2 27 9 30 36 3 25 0 32 -13 32 -14 0 -14 3 4 15 24 17 21 41
-5 48 -15 4 -15 5 1 6 9 0 17 6 17 11 0 10 -4 11 -31 3z"/>
<path d="M3320 2734 c-24 -13 -24 -14 -3 -14 28 0 53 10 53 21 0 12 -20 10
-50 -7z"/>
<path d="M2120 2621 c0 -11 5 -23 10 -26 6 -4 10 5 10 19 0 14 -4 26 -10 26
-5 0 -10 -9 -10 -19z"/>
<path d="M1937 2576 c-4 -10 -5 -21 -2 -24 9 -9 17 6 13 25 -3 17 -4 17 -11
-1z"/>
<path d="M2210 2558 c0 -7 4 -19 9 -27 11 -17 23 1 15 23 -7 19 -24 21 -24 4z"/>
<path d="M1873 2510 c0 -25 2 -35 4 -22 2 12 2 32 0 45 -2 12 -4 2 -4 -23z"/>
<path d="M1907 2424 c-4 -4 -7 -14 -7 -23 0 -11 3 -12 11 -4 6 6 10 16 7 23
-2 6 -7 8 -11 4z"/>
<path d="M2001 2404 c0 -11 3 -14 6 -6 3 7 2 16 -1 19 -3 4 -6 -2 -5 -13z"/>
<path d="M1801 2334 c0 -11 3 -14 6 -6 3 7 2 16 -1 19 -3 4 -6 -2 -5 -13z"/>
<path d="M2038 2033 c7 -3 16 -2 19 1 4 3 -2 6 -13 5 -11 0 -14 -3 -6 -6z"/>
<path d="M1998 2023 c7 -3 16 -2 19 1 4 3 -2 6 -13 5 -11 0 -14 -3 -6 -6z"/>
<path d="M2136 1919 c-3 -8 -15 -77 -27 -153 -17 -103 -27 -143 -41 -155 -24
-21 -23 -26 7 -29 14 -1 25 4 25 11 0 6 5 39 10 72 5 33 16 105 25 159 8 54
13 101 10 104 -2 3 -7 -1 -9 -9z"/>
<path d="M1891 1704 c0 -11 3 -14 6 -6 3 7 2 16 -1 19 -3 4 -6 -2 -5 -13z"/>
<path d="M2318 1618 c-5 -60 -3 -77 6 -67 10 10 18 129 8 129 -5 0 -12 -28
-14 -62z"/>
<path d="M2328 1497 c-12 -29 -10 -83 3 -70 6 6 9 28 7 49 -2 29 -5 34 -10 21z"/>
<path d="M2323 1365 c0 -22 2 -30 4 -17 2 12 2 30 0 40 -3 9 -5 -1 -4 -23z"/>
<path d="M2323 1255 c0 -33 2 -45 4 -27 2 18 2 45 0 60 -2 15 -4 0 -4 -33z"/>
<path d="M1960 1144 c0 -8 5 -12 10 -9 6 4 8 11 5 16 -9 14 -15 11 -15 -7z"/>
<path d="M2322 1110 c0 -19 2 -27 5 -17 2 9 2 25 0 35 -3 9 -5 1 -5 -18z"/>
<path d="M2010 1010 c0 -5 5 -10 10 -10 6 0 10 5 10 10 0 6 -4 10 -10 10 -5 0
-10 -4 -10 -10z"/>
<path d="M2107 913 c-68 -63 -83 -92 -32 -59 16 11 31 14 38 9 15 -12 25 -11
65 6 30 13 48 39 18 28 -8 -3 -32 -9 -53 -13 l-38 -6 39 40 c65 68 35 64 -37
-5z"/>
<path d="M2075 819 c-9 -14 -2 -20 14 -10 8 6 9 11 3 15 -6 3 -14 1 -17 -5z"/>
<path d="M2012 690 c0 -14 2 -19 5 -12 2 6 2 18 0 25 -3 6 -5 1 -5 -13z"/>
<path d="M1900 674 c0 -17 22 -14 28 4 2 7 -3 12 -12 12 -9 0 -16 -7 -16 -16z"/>
<path d="M2343 653 c-7 -3 -13 -12 -13 -21 0 -15 2 -15 17 1 18 18 16 27 -4
20z"/>
<path d="M2000 640 c0 -5 7 -10 15 -10 8 0 15 5 15 10 0 6 -7 10 -15 10 -8 0
-15 -4 -15 -10z"/>
<path d="M2331 601 c-8 -6 -9 -11 -3 -15 6 -3 14 -1 17 5 9 14 2 20 -14 10z"/>
<path d="M1867 513 c-12 -12 -7 -22 8 -17 8 4 15 10 15 15 0 11 -14 12 -23 2z"/>
<path d="M1940 510 c0 -5 5 -10 10 -10 6 0 10 5 10 10 0 6 -4 10 -10 10 -5 0
-10 -4 -10 -10z"/>
</g>
</svg>
